<?xml version="1.0" encoding="utf-8" standalone="no"?>
<!DOCTYPE svg PUBLIC "-//W3C//DTD SVG 1.1//EN"
  "http://www.w3.org/Graphics/SVG/1.1/DTD/svg11.dtd">
<svg xmlns:xlink="http://www.w3.org/1999/xlink" width="568.388125pt" height="423.908437pt" viewBox="0 0 568.388125 423.908437" xmlns="http://www.w3.org/2000/svg" version="1.1">
 <metadata>
  <rdf:RDF xmlns:dc="http://purl.org/dc/elements/1.1/" xmlns:cc="http://creativecommons.org/ns#" xmlns:rdf="http://www.w3.org/1999/02/22-rdf-syntax-ns#">
   <cc:Work>
    <dc:type rdf:resource="http://purl.org/dc/dcmitype/StillImage"/>
    <dc:date>2026-06-15T21:04:35.915774</dc:date>
    <dc:format>image/svg+xml</dc:format>
    <dc:creator>
     <cc:Agent>
      <dc:title>Matplotlib v3.10.8, https://matplotlib.org/</dc:title>
     </cc:Agent>
    </dc:creator>
   </cc:Work>
  </rdf:RDF>
 </metadata>
 <defs>
  <style type="text/css">*{stroke-linejoin: round; stroke-linecap: butt}</style>
 </defs>
 <g id="figure_1">
  <g id="patch_1">
   <path d="M 0 423.908437 
L 568.388125 423.908437 
L 568.388125 -0 
L 0 -0 
L 0 423.908437 
z
" style="fill: none"/>
  </g>
  <g id="axes_1">
   <g id="patch_2">
    <path d="M 40.603125 352.614125 
L 561.188125 352.614125 
L 561.188125 22.318125 
L 40.603125 22.318125 
L 40.603125 352.614125 
z
" style="fill: none"/>
   </g>
   <g id="patch_3">
    <path d="M 64.26608 352.614125 
L 274.603453 352.614125 
L 274.603453 61.353107 
L 64.26608 61.353107 
z
" clip-path="url(#p57b936a971)" style="fill: #9467bd"/>
   </g>
   <g id="patch_4">
    <path d="M 327.187797 352.614125 
L 537.52517 352.614125 
L 537.52517 286.554925 
L 327.187797 286.554925 
z
" clip-path="url(#p57b936a971)" style="fill: url(#h98dd609c5a)"/>
   </g>
   <g id="matplotlib.axis_1">
    <g id="xtick_1">
     <g id="line2d_1">
      <defs>
       <path id="m525b3f4c85" d="M 0 0 
L 0 3.5 
" style="stroke: #000000; stroke-width: 0.8"/>
      </defs>
      <g>
       <use xlink:href="#m525b3f4c85" x="169.434766" y="352.614125" style="stroke: #000000; stroke-width: 0.8"/>
      </g>
     </g>
     <g id="text_1">
      <!-- Light -->
      <g transform="translate(156.956641 367.212562) scale(0.1 -0.1)">
       <defs>
        <path id="DejaVuSans-4c" d="M 628 4666 
L 1259 4666 
L 1259 531 
L 3531 531 
L 3531 0 
L 628 0 
L 628 4666 
z
" transform="scale(0.015625)"/>
        <path id="DejaVuSans-69" d="M 603 3500 
L 1178 3500 
L 1178 0 
L 603 0 
L 603 3500 
z
M 603 4863 
L 1178 4863 
L 1178 4134 
L 603 4134 
L 603 4863 
z
" transform="scale(0.015625)"/>
        <path id="DejaVuSans-67" d="M 2906 1791 
Q 2906 2416 2648 2759 
Q 2391 3103 1925 3103 
Q 1463 3103 1205 2759 
Q 947 2416 947 1791 
Q 947 1169 1205 825 
Q 1463 481 1925 481 
Q 2391 481 2648 825 
Q 2906 1169 2906 1791 
z
M 3481 434 
Q 3481 -459 3084 -895 
Q 2688 -1331 1869 -1331 
Q 1566 -1331 1297 -1286 
Q 1028 -1241 775 -1147 
L 775 -588 
Q 1028 -725 1275 -790 
Q 1522 -856 1778 -856 
Q 2344 -856 2625 -561 
Q 2906 -266 2906 331 
L 2906 616 
Q 2728 306 2450 153 
Q 2172 0 1784 0 
Q 1141 0 747 490 
Q 353 981 353 1791 
Q 353 2603 747 3093 
Q 1141 3584 1784 3584 
Q 2172 3584 2450 3431 
Q 2728 3278 2906 2969 
L 2906 3500 
L 3481 3500 
L 3481 434 
z
" transform="scale(0.015625)"/>
        <path id="DejaVuSans-68" d="M 3513 2113 
L 3513 0 
L 2938 0 
L 2938 2094 
Q 2938 2591 2744 2837 
Q 2550 3084 2163 3084 
Q 1697 3084 1428 2787 
Q 1159 2491 1159 1978 
L 1159 0 
L 581 0 
L 581 4863 
L 1159 4863 
L 1159 2956 
Q 1366 3272 1645 3428 
Q 1925 3584 2291 3584 
Q 2894 3584 3203 3211 
Q 3513 2838 3513 2113 
z
" transform="scale(0.015625)"/>
        <path id="DejaVuSans-74" d="M 1172 4494 
L 1172 3500 
L 2356 3500 
L 2356 3053 
L 1172 3053 
L 1172 1153 
Q 1172 725 1289 603 
Q 1406 481 1766 481 
L 2356 481 
L 2356 0 
L 1766 0 
Q 1100 0 847 248 
Q 594 497 594 1153 
L 594 3053 
L 172 3053 
L 172 3500 
L 594 3500 
L 594 4494 
L 1172 4494 
z
" transform="scale(0.015625)"/>
       </defs>
       <use xlink:href="#DejaVuSans-4c"/>
       <use xlink:href="#DejaVuSans-69" transform="translate(55.712891 0)"/>
       <use xlink:href="#DejaVuSans-67" transform="translate(83.496094 0)"/>
       <use xlink:href="#DejaVuSans-68" transform="translate(146.972656 0)"/>
       <use xlink:href="#DejaVuSans-74" transform="translate(210.351562 0)"/>
      </g>
      <!-- (overhead-dominated) -->
      <g transform="translate(113.245704 378.410375) scale(0.1 -0.1)">
       <defs>
        <path id="DejaVuSans-28" d="M 1984 4856 
Q 1566 4138 1362 3434 
Q 1159 2731 1159 2009 
Q 1159 1288 1364 580 
Q 1569 -128 1984 -844 
L 1484 -844 
Q 1016 -109 783 600 
Q 550 1309 550 2009 
Q 550 2706 781 3412 
Q 1013 4119 1484 4856 
L 1984 4856 
z
" transform="scale(0.015625)"/>
        <path id="DejaVuSans-6f" d="M 1959 3097 
Q 1497 3097 1228 2736 
Q 959 2375 959 1747 
Q 959 1119 1226 758 
Q 1494 397 1959 397 
Q 2419 397 2687 759 
Q 2956 1122 2956 1747 
Q 2956 2369 2687 2733 
Q 2419 3097 1959 3097 
z
M 1959 3584 
Q 2709 3584 3137 3096 
Q 3566 2609 3566 1747 
Q 3566 888 3137 398 
Q 2709 -91 1959 -91 
Q 1206 -91 779 398 
Q 353 888 353 1747 
Q 353 2609 779 3096 
Q 1206 3584 1959 3584 
z
" transform="scale(0.015625)"/>
        <path id="DejaVuSans-76" d="M 191 3500 
L 800 3500 
L 1894 563 
L 2988 3500 
L 3597 3500 
L 2284 0 
L 1503 0 
L 191 3500 
z
" transform="scale(0.015625)"/>
        <path id="DejaVuSans-65" d="M 3597 1894 
L 3597 1613 
L 953 1613 
Q 991 1019 1311 708 
Q 1631 397 2203 397 
Q 2534 397 2845 478 
Q 3156 559 3463 722 
L 3463 178 
Q 3153 47 2828 -22 
Q 2503 -91 2169 -91 
Q 1331 -91 842 396 
Q 353 884 353 1716 
Q 353 2575 817 3079 
Q 1281 3584 2069 3584 
Q 2775 3584 3186 3129 
Q 3597 2675 3597 1894 
z
M 3022 2063 
Q 3016 2534 2758 2815 
Q 2500 3097 2075 3097 
Q 1594 3097 1305 2825 
Q 1016 2553 972 2059 
L 3022 2063 
z
" transform="scale(0.015625)"/>
        <path id="DejaVuSans-72" d="M 2631 2963 
Q 2534 3019 2420 3045 
Q 2306 3072 2169 3072 
Q 1681 3072 1420 2755 
Q 1159 2438 1159 1844 
L 1159 0 
L 581 0 
L 581 3500 
L 1159 3500 
L 1159 2956 
Q 1341 3275 1631 3429 
Q 1922 3584 2338 3584 
Q 2397 3584 2469 3576 
Q 2541 3569 2628 3553 
L 2631 2963 
z
" transform="scale(0.015625)"/>
        <path id="DejaVuSans-61" d="M 2194 1759 
Q 1497 1759 1228 1600 
Q 959 1441 959 1056 
Q 959 750 1161 570 
Q 1363 391 1709 391 
Q 2188 391 2477 730 
Q 2766 1069 2766 1631 
L 2766 1759 
L 2194 1759 
z
M 3341 1997 
L 3341 0 
L 2766 0 
L 2766 531 
Q 2569 213 2275 61 
Q 1981 -91 1556 -91 
Q 1019 -91 701 211 
Q 384 513 384 1019 
Q 384 1609 779 1909 
Q 1175 2209 1959 2209 
L 2766 2209 
L 2766 2266 
Q 2766 2663 2505 2880 
Q 2244 3097 1772 3097 
Q 1472 3097 1187 3025 
Q 903 2953 641 2809 
L 641 3341 
Q 956 3463 1253 3523 
Q 1550 3584 1831 3584 
Q 2591 3584 2966 3190 
Q 3341 2797 3341 1997 
z
" transform="scale(0.015625)"/>
        <path id="DejaVuSans-64" d="M 2906 2969 
L 2906 4863 
L 3481 4863 
L 3481 0 
L 2906 0 
L 2906 525 
Q 2725 213 2448 61 
Q 2172 -91 1784 -91 
Q 1150 -91 751 415 
Q 353 922 353 1747 
Q 353 2572 751 3078 
Q 1150 3584 1784 3584 
Q 2172 3584 2448 3432 
Q 2725 3281 2906 2969 
z
M 947 1747 
Q 947 1113 1208 752 
Q 1469 391 1925 391 
Q 2381 391 2643 752 
Q 2906 1113 2906 1747 
Q 2906 2381 2643 2742 
Q 2381 3103 1925 3103 
Q 1469 3103 1208 2742 
Q 947 2381 947 1747 
z
" transform="scale(0.015625)"/>
        <path id="DejaVuSans-2d" d="M 313 2009 
L 1997 2009 
L 1997 1497 
L 313 1497 
L 313 2009 
z
" transform="scale(0.015625)"/>
        <path id="DejaVuSans-6d" d="M 3328 2828 
Q 3544 3216 3844 3400 
Q 4144 3584 4550 3584 
Q 5097 3584 5394 3201 
Q 5691 2819 5691 2113 
L 5691 0 
L 5113 0 
L 5113 2094 
Q 5113 2597 4934 2840 
Q 4756 3084 4391 3084 
Q 3944 3084 3684 2787 
Q 3425 2491 3425 1978 
L 3425 0 
L 2847 0 
L 2847 2094 
Q 2847 2600 2669 2842 
Q 2491 3084 2119 3084 
Q 1678 3084 1418 2786 
Q 1159 2488 1159 1978 
L 1159 0 
L 581 0 
L 581 3500 
L 1159 3500 
L 1159 2956 
Q 1356 3278 1631 3431 
Q 1906 3584 2284 3584 
Q 2666 3584 2933 3390 
Q 3200 3197 3328 2828 
z
" transform="scale(0.015625)"/>
        <path id="DejaVuSans-6e" d="M 3513 2113 
L 3513 0 
L 2938 0 
L 2938 2094 
Q 2938 2591 2744 2837 
Q 2550 3084 2163 3084 
Q 1697 3084 1428 2787 
Q 1159 2491 1159 1978 
L 1159 0 
L 581 0 
L 581 3500 
L 1159 3500 
L 1159 2956 
Q 1366 3272 1645 3428 
Q 1925 3584 2291 3584 
Q 2894 3584 3203 3211 
Q 3513 2838 3513 2113 
z
" transform="scale(0.015625)"/>
        <path id="DejaVuSans-29" d="M 513 4856 
L 1013 4856 
Q 1481 4119 1714 3412 
Q 1947 2706 1947 2009 
Q 1947 1309 1714 600 
Q 1481 -109 1013 -844 
L 513 -844 
Q 928 -128 1133 580 
Q 1338 1288 1338 2009 
Q 1338 2731 1133 3434 
Q 928 4138 513 4856 
z
" transform="scale(0.015625)"/>
       </defs>
       <use xlink:href="#DejaVuSans-28"/>
       <use xlink:href="#DejaVuSans-6f" transform="translate(39.013672 0)"/>
       <use xlink:href="#DejaVuSans-76" transform="translate(100.195312 0)"/>
       <use xlink:href="#DejaVuSans-65" transform="translate(159.375 0)"/>
       <use xlink:href="#DejaVuSans-72" transform="translate(220.898438 0)"/>
       <use xlink:href="#DejaVuSans-68" transform="translate(260.261719 0)"/>
       <use xlink:href="#DejaVuSans-65" transform="translate(323.640625 0)"/>
       <use xlink:href="#DejaVuSans-61" transform="translate(385.164062 0)"/>
       <use xlink:href="#DejaVuSans-64" transform="translate(446.443359 0)"/>
       <use xlink:href="#DejaVuSans-2d" transform="translate(509.919922 0)"/>
       <use xlink:href="#DejaVuSans-64" transform="translate(546.003906 0)"/>
       <use xlink:href="#DejaVuSans-6f" transform="translate(609.480469 0)"/>
       <use xlink:href="#DejaVuSans-6d" transform="translate(670.662109 0)"/>
       <use xlink:href="#DejaVuSans-69" transform="translate(768.074219 0)"/>
       <use xlink:href="#DejaVuSans-6e" transform="translate(795.857422 0)"/>
       <use xlink:href="#DejaVuSans-61" transform="translate(859.236328 0)"/>
       <use xlink:href="#DejaVuSans-74" transform="translate(920.515625 0)"/>
       <use xlink:href="#DejaVuSans-65" transform="translate(959.724609 0)"/>
       <use xlink:href="#DejaVuSans-64" transform="translate(1021.248047 0)"/>
       <use xlink:href="#DejaVuSans-29" transform="translate(1084.724609 0)"/>
      </g>
     </g>
    </g>
    <g id="xtick_2">
     <g id="line2d_2">
      <g>
       <use xlink:href="#m525b3f4c85" x="432.356484" y="352.614125" style="stroke: #000000; stroke-width: 0.8"/>
      </g>
     </g>
     <g id="text_2">
      <!-- Heavy -->
      <g transform="translate(416.536952 367.212562) scale(0.1 -0.1)">
       <defs>
        <path id="DejaVuSans-48" d="M 628 4666 
L 1259 4666 
L 1259 2753 
L 3553 2753 
L 3553 4666 
L 4184 4666 
L 4184 0 
L 3553 0 
L 3553 2222 
L 1259 2222 
L 1259 0 
L 628 0 
L 628 4666 
z
" transform="scale(0.015625)"/>
        <path id="DejaVuSans-79" d="M 2059 -325 
Q 1816 -950 1584 -1140 
Q 1353 -1331 966 -1331 
L 506 -1331 
L 506 -850 
L 844 -850 
Q 1081 -850 1212 -737 
Q 1344 -625 1503 -206 
L 1606 56 
L 191 3500 
L 800 3500 
L 1894 763 
L 2988 3500 
L 3597 3500 
L 2059 -325 
z
" transform="scale(0.015625)"/>
       </defs>
       <use xlink:href="#DejaVuSans-48"/>
       <use xlink:href="#DejaVuSans-65" transform="translate(75.195312 0)"/>
       <use xlink:href="#DejaVuSans-61" transform="translate(136.71875 0)"/>
       <use xlink:href="#DejaVuSans-76" transform="translate(197.998047 0)"/>
       <use xlink:href="#DejaVuSans-79" transform="translate(257.177734 0)"/>
      </g>
      <!-- (data-dominated) -->
      <g transform="translate(388.451796 378.410375) scale(0.1 -0.1)">
       <use xlink:href="#DejaVuSans-28"/>
       <use xlink:href="#DejaVuSans-64" transform="translate(39.013672 0)"/>
       <use xlink:href="#DejaVuSans-61" transform="translate(102.490234 0)"/>
       <use xlink:href="#DejaVuSans-74" transform="translate(163.769531 0)"/>
       <use xlink:href="#DejaVuSans-61" transform="translate(202.978516 0)"/>
       <use xlink:href="#DejaVuSans-2d" transform="translate(264.257812 0)"/>
       <use xlink:href="#DejaVuSans-64" transform="translate(300.341797 0)"/>
       <use xlink:href="#DejaVuSans-6f" transform="translate(363.818359 0)"/>
       <use xlink:href="#DejaVuSans-6d" transform="translate(425 0)"/>
       <use xlink:href="#DejaVuSans-69" transform="translate(522.412109 0)"/>
       <use xlink:href="#DejaVuSans-6e" transform="translate(550.195312 0)"/>
       <use xlink:href="#DejaVuSans-61" transform="translate(613.574219 0)"/>
       <use xlink:href="#DejaVuSans-74" transform="translate(674.853516 0)"/>
       <use xlink:href="#DejaVuSans-65" transform="translate(714.0625 0)"/>
       <use xlink:href="#DejaVuSans-64" transform="translate(775.585938 0)"/>
       <use xlink:href="#DejaVuSans-29" transform="translate(839.0625 0)"/>
      </g>
     </g>
    </g>
   </g>
   <g id="matplotlib.axis_2">
    <g id="ytick_1">
     <g id="line2d_3">
      <defs>
       <path id="m2ade6813bb" d="M 0 0 
L -3.5 0 
" style="stroke: #000000; stroke-width: 0.8"/>
      </defs>
      <g>
       <use xlink:href="#m2ade6813bb" x="40.603125" y="352.614125" style="stroke: #000000; stroke-width: 0.8"/>
      </g>
     </g>
     <g id="text_3">
      <!-- 0 -->
      <g transform="translate(27.240625 356.413344) scale(0.1 -0.1)">
       <defs>
        <path id="DejaVuSans-30" d="M 2034 4250 
Q 1547 4250 1301 3770 
Q 1056 3291 1056 2328 
Q 1056 1369 1301 889 
Q 1547 409 2034 409 
Q 2525 409 2770 889 
Q 3016 1369 3016 2328 
Q 3016 3291 2770 3770 
Q 2525 4250 2034 4250 
z
M 2034 4750 
Q 2819 4750 3233 4129 
Q 3647 3509 3647 2328 
Q 3647 1150 3233 529 
Q 2819 -91 2034 -91 
Q 1250 -91 836 529 
Q 422 1150 422 2328 
Q 422 3509 836 4129 
Q 1250 4750 2034 4750 
z
" transform="scale(0.015625)"/>
       </defs>
       <use xlink:href="#DejaVuSans-30"/>
      </g>
     </g>
    </g>
    <g id="ytick_2">
     <g id="line2d_4">
      <g>
       <use xlink:href="#m2ade6813bb" x="40.603125" y="292.560307" style="stroke: #000000; stroke-width: 0.8"/>
      </g>
     </g>
     <g id="text_4">
      <!-- 2 -->
      <g transform="translate(27.240625 296.359526) scale(0.1 -0.1)">
       <defs>
        <path id="DejaVuSans-32" d="M 1228 531 
L 3431 531 
L 3431 0 
L 469 0 
L 469 531 
Q 828 903 1448 1529 
Q 2069 2156 2228 2338 
Q 2531 2678 2651 2914 
Q 2772 3150 2772 3378 
Q 2772 3750 2511 3984 
Q 2250 4219 1831 4219 
Q 1534 4219 1204 4116 
Q 875 4013 500 3803 
L 500 4441 
Q 881 4594 1212 4672 
Q 1544 4750 1819 4750 
Q 2544 4750 2975 4387 
Q 3406 4025 3406 3419 
Q 3406 3131 3298 2873 
Q 3191 2616 2906 2266 
Q 2828 2175 2409 1742 
Q 1991 1309 1228 531 
z
" transform="scale(0.015625)"/>
       </defs>
       <use xlink:href="#DejaVuSans-32"/>
      </g>
     </g>
    </g>
    <g id="ytick_3">
     <g id="line2d_5">
      <g>
       <use xlink:href="#m2ade6813bb" x="40.603125" y="232.506489" style="stroke: #000000; stroke-width: 0.8"/>
      </g>
     </g>
     <g id="text_5">
      <!-- 4 -->
      <g transform="translate(27.240625 236.305707) scale(0.1 -0.1)">
       <defs>
        <path id="DejaVuSans-34" d="M 2419 4116 
L 825 1625 
L 2419 1625 
L 2419 4116 
z
M 2253 4666 
L 3047 4666 
L 3047 1625 
L 3713 1625 
L 3713 1100 
L 3047 1100 
L 3047 0 
L 2419 0 
L 2419 1100 
L 313 1100 
L 313 1709 
L 2253 4666 
z
" transform="scale(0.015625)"/>
       </defs>
       <use xlink:href="#DejaVuSans-34"/>
      </g>
     </g>
    </g>
    <g id="ytick_4">
     <g id="line2d_6">
      <g>
       <use xlink:href="#m2ade6813bb" x="40.603125" y="172.45267" style="stroke: #000000; stroke-width: 0.8"/>
      </g>
     </g>
     <g id="text_6">
      <!-- 6 -->
      <g transform="translate(27.240625 176.251889) scale(0.1 -0.1)">
       <defs>
        <path id="DejaVuSans-36" d="M 2113 2584 
Q 1688 2584 1439 2293 
Q 1191 2003 1191 1497 
Q 1191 994 1439 701 
Q 1688 409 2113 409 
Q 2538 409 2786 701 
Q 3034 994 3034 1497 
Q 3034 2003 2786 2293 
Q 2538 2584 2113 2584 
z
M 3366 4563 
L 3366 3988 
Q 3128 4100 2886 4159 
Q 2644 4219 2406 4219 
Q 1781 4219 1451 3797 
Q 1122 3375 1075 2522 
Q 1259 2794 1537 2939 
Q 1816 3084 2150 3084 
Q 2853 3084 3261 2657 
Q 3669 2231 3669 1497 
Q 3669 778 3244 343 
Q 2819 -91 2113 -91 
Q 1303 -91 875 529 
Q 447 1150 447 2328 
Q 447 3434 972 4092 
Q 1497 4750 2381 4750 
Q 2619 4750 2861 4703 
Q 3103 4656 3366 4563 
z
" transform="scale(0.015625)"/>
       </defs>
       <use xlink:href="#DejaVuSans-36"/>
      </g>
     </g>
    </g>
    <g id="ytick_5">
     <g id="line2d_7">
      <g>
       <use xlink:href="#m2ade6813bb" x="40.603125" y="112.398852" style="stroke: #000000; stroke-width: 0.8"/>
      </g>
     </g>
     <g id="text_7">
      <!-- 8 -->
      <g transform="translate(27.240625 116.198071) scale(0.1 -0.1)">
       <defs>
        <path id="DejaVuSans-38" d="M 2034 2216 
Q 1584 2216 1326 1975 
Q 1069 1734 1069 1313 
Q 1069 891 1326 650 
Q 1584 409 2034 409 
Q 2484 409 2743 651 
Q 3003 894 3003 1313 
Q 3003 1734 2745 1975 
Q 2488 2216 2034 2216 
z
M 1403 2484 
Q 997 2584 770 2862 
Q 544 3141 544 3541 
Q 544 4100 942 4425 
Q 1341 4750 2034 4750 
Q 2731 4750 3128 4425 
Q 3525 4100 3525 3541 
Q 3525 3141 3298 2862 
Q 3072 2584 2669 2484 
Q 3125 2378 3379 2068 
Q 3634 1759 3634 1313 
Q 3634 634 3220 271 
Q 2806 -91 2034 -91 
Q 1263 -91 848 271 
Q 434 634 434 1313 
Q 434 1759 690 2068 
Q 947 2378 1403 2484 
z
M 1172 3481 
Q 1172 3119 1398 2916 
Q 1625 2713 2034 2713 
Q 2441 2713 2670 2916 
Q 2900 3119 2900 3481 
Q 2900 3844 2670 4047 
Q 2441 4250 2034 4250 
Q 1625 4250 1398 4047 
Q 1172 3844 1172 3481 
z
" transform="scale(0.015625)"/>
       </defs>
       <use xlink:href="#DejaVuSans-38"/>
      </g>
     </g>
    </g>
    <g id="ytick_6">
     <g id="line2d_8">
      <g>
       <use xlink:href="#m2ade6813bb" x="40.603125" y="52.345034" style="stroke: #000000; stroke-width: 0.8"/>
      </g>
     </g>
     <g id="text_8">
      <!-- 10 -->
      <g transform="translate(20.878125 56.144253) scale(0.1 -0.1)">
       <defs>
        <path id="DejaVuSans-31" d="M 794 531 
L 1825 531 
L 1825 4091 
L 703 3866 
L 703 4441 
L 1819 4666 
L 2450 4666 
L 2450 531 
L 3481 531 
L 3481 0 
L 794 0 
L 794 531 
z
" transform="scale(0.015625)"/>
       </defs>
       <use xlink:href="#DejaVuSans-31"/>
       <use xlink:href="#DejaVuSans-30" transform="translate(63.623047 0)"/>
      </g>
     </g>
    </g>
    <g id="text_9">
     <!-- Distill-alone speedup  (× cheaper per repeat) -->
     <g transform="translate(14.798438 301.039562) rotate(-90) scale(0.1 -0.1)">
      <defs>
       <path id="DejaVuSans-44" d="M 1259 4147 
L 1259 519 
L 2022 519 
Q 2988 519 3436 956 
Q 3884 1394 3884 2338 
Q 3884 3275 3436 3711 
Q 2988 4147 2022 4147 
L 1259 4147 
z
M 628 4666 
L 1925 4666 
Q 3281 4666 3915 4102 
Q 4550 3538 4550 2338 
Q 4550 1131 3912 565 
Q 3275 0 1925 0 
L 628 0 
L 628 4666 
z
" transform="scale(0.015625)"/>
       <path id="DejaVuSans-73" d="M 2834 3397 
L 2834 2853 
Q 2591 2978 2328 3040 
Q 2066 3103 1784 3103 
Q 1356 3103 1142 2972 
Q 928 2841 928 2578 
Q 928 2378 1081 2264 
Q 1234 2150 1697 2047 
L 1894 2003 
Q 2506 1872 2764 1633 
Q 3022 1394 3022 966 
Q 3022 478 2636 193 
Q 2250 -91 1575 -91 
Q 1294 -91 989 -36 
Q 684 19 347 128 
L 347 722 
Q 666 556 975 473 
Q 1284 391 1588 391 
Q 1994 391 2212 530 
Q 2431 669 2431 922 
Q 2431 1156 2273 1281 
Q 2116 1406 1581 1522 
L 1381 1569 
Q 847 1681 609 1914 
Q 372 2147 372 2553 
Q 372 3047 722 3315 
Q 1072 3584 1716 3584 
Q 2034 3584 2315 3537 
Q 2597 3491 2834 3397 
z
" transform="scale(0.015625)"/>
       <path id="DejaVuSans-6c" d="M 603 4863 
L 1178 4863 
L 1178 0 
L 603 0 
L 603 4863 
z
" transform="scale(0.015625)"/>
       <path id="DejaVuSans-20" transform="scale(0.015625)"/>
       <path id="DejaVuSans-70" d="M 1159 525 
L 1159 -1331 
L 581 -1331 
L 581 3500 
L 1159 3500 
L 1159 2969 
Q 1341 3281 1617 3432 
Q 1894 3584 2278 3584 
Q 2916 3584 3314 3078 
Q 3713 2572 3713 1747 
Q 3713 922 3314 415 
Q 2916 -91 2278 -91 
Q 1894 -91 1617 61 
Q 1341 213 1159 525 
z
M 3116 1747 
Q 3116 2381 2855 2742 
Q 2594 3103 2138 3103 
Q 1681 3103 1420 2742 
Q 1159 2381 1159 1747 
Q 1159 1113 1420 752 
Q 1681 391 2138 391 
Q 2594 391 2855 752 
Q 3116 1113 3116 1747 
z
" transform="scale(0.015625)"/>
       <path id="DejaVuSans-75" d="M 544 1381 
L 544 3500 
L 1119 3500 
L 1119 1403 
Q 1119 906 1312 657 
Q 1506 409 1894 409 
Q 2359 409 2629 706 
Q 2900 1003 2900 1516 
L 2900 3500 
L 3475 3500 
L 3475 0 
L 2900 0 
L 2900 538 
Q 2691 219 2414 64 
Q 2138 -91 1772 -91 
Q 1169 -91 856 284 
Q 544 659 544 1381 
z
M 1991 3584 
L 1991 3584 
z
" transform="scale(0.015625)"/>
       <path id="DejaVuSans-d7" d="M 4488 3438 
L 3059 2003 
L 4488 575 
L 4116 197 
L 2681 1631 
L 1247 197 
L 878 575 
L 2303 2003 
L 878 3438 
L 1247 3816 
L 2681 2381 
L 4116 3816 
L 4488 3438 
z
" transform="scale(0.015625)"/>
       <path id="DejaVuSans-63" d="M 3122 3366 
L 3122 2828 
Q 2878 2963 2633 3030 
Q 2388 3097 2138 3097 
Q 1578 3097 1268 2742 
Q 959 2388 959 1747 
Q 959 1106 1268 751 
Q 1578 397 2138 397 
Q 2388 397 2633 464 
Q 2878 531 3122 666 
L 3122 134 
Q 2881 22 2623 -34 
Q 2366 -91 2075 -91 
Q 1284 -91 818 406 
Q 353 903 353 1747 
Q 353 2603 823 3093 
Q 1294 3584 2113 3584 
Q 2378 3584 2631 3529 
Q 2884 3475 3122 3366 
z
" transform="scale(0.015625)"/>
      </defs>
      <use xlink:href="#DejaVuSans-44"/>
      <use xlink:href="#DejaVuSans-69" transform="translate(77.001953 0)"/>
      <use xlink:href="#DejaVuSans-73" transform="translate(104.785156 0)"/>
      <use xlink:href="#DejaVuSans-74" transform="translate(156.884766 0)"/>
      <use xlink:href="#DejaVuSans-69" transform="translate(196.09375 0)"/>
      <use xlink:href="#DejaVuSans-6c" transform="translate(223.876953 0)"/>
      <use xlink:href="#DejaVuSans-6c" transform="translate(251.660156 0)"/>
      <use xlink:href="#DejaVuSans-2d" transform="translate(279.443359 0)"/>
      <use xlink:href="#DejaVuSans-61" transform="translate(315.527344 0)"/>
      <use xlink:href="#DejaVuSans-6c" transform="translate(376.806641 0)"/>
      <use xlink:href="#DejaVuSans-6f" transform="translate(404.589844 0)"/>
      <use xlink:href="#DejaVuSans-6e" transform="translate(465.771484 0)"/>
      <use xlink:href="#DejaVuSans-65" transform="translate(529.150391 0)"/>
      <use xlink:href="#DejaVuSans-20" transform="translate(590.673828 0)"/>
      <use xlink:href="#DejaVuSans-73" transform="translate(622.460938 0)"/>
      <use xlink:href="#DejaVuSans-70" transform="translate(674.560547 0)"/>
      <use xlink:href="#DejaVuSans-65" transform="translate(738.037109 0)"/>
      <use xlink:href="#DejaVuSans-65" transform="translate(799.560547 0)"/>
      <use xlink:href="#DejaVuSans-64" transform="translate(861.083984 0)"/>
      <use xlink:href="#DejaVuSans-75" transform="translate(924.560547 0)"/>
      <use xlink:href="#DejaVuSans-70" transform="translate(987.939453 0)"/>
      <use xlink:href="#DejaVuSans-20" transform="translate(1051.416016 0)"/>
      <use xlink:href="#DejaVuSans-20" transform="translate(1083.203125 0)"/>
      <use xlink:href="#DejaVuSans-28" transform="translate(1114.990234 0)"/>
      <use xlink:href="#DejaVuSans-d7" transform="translate(1154.003906 0)"/>
      <use xlink:href="#DejaVuSans-20" transform="translate(1237.792969 0)"/>
      <use xlink:href="#DejaVuSans-63" transform="translate(1269.580078 0)"/>
      <use xlink:href="#DejaVuSans-68" transform="translate(1324.560547 0)"/>
      <use xlink:href="#DejaVuSans-65" transform="translate(1387.939453 0)"/>
      <use xlink:href="#DejaVuSans-61" transform="translate(1449.462891 0)"/>
      <use xlink:href="#DejaVuSans-70" transform="translate(1510.742188 0)"/>
      <use xlink:href="#DejaVuSans-65" transform="translate(1574.21875 0)"/>
      <use xlink:href="#DejaVuSans-72" transform="translate(1635.742188 0)"/>
      <use xlink:href="#DejaVuSans-20" transform="translate(1676.855469 0)"/>
      <use xlink:href="#DejaVuSans-70" transform="translate(1708.642578 0)"/>
      <use xlink:href="#DejaVuSans-65" transform="translate(1772.119141 0)"/>
      <use xlink:href="#DejaVuSans-72" transform="translate(1833.642578 0)"/>
      <use xlink:href="#DejaVuSans-20" transform="translate(1874.755859 0)"/>
      <use xlink:href="#DejaVuSans-72" transform="translate(1906.542969 0)"/>
      <use xlink:href="#DejaVuSans-65" transform="translate(1945.40625 0)"/>
      <use xlink:href="#DejaVuSans-70" transform="translate(2006.929688 0)"/>
      <use xlink:href="#DejaVuSans-65" transform="translate(2070.40625 0)"/>
      <use xlink:href="#DejaVuSans-61" transform="translate(2131.929688 0)"/>
      <use xlink:href="#DejaVuSans-74" transform="translate(2193.208984 0)"/>
      <use xlink:href="#DejaVuSans-29" transform="translate(2232.417969 0)"/>
     </g>
    </g>
   </g>
   <g id="LineCollection_1">
    <path d="M 432.356484 322.587216 
L 432.356484 202.47958 
" clip-path="url(#p57b936a971)" style="fill: none; stroke: #000000; stroke-width: 1.5"/>
   </g>
   <g id="line2d_9">
    <defs>
     <path id="mb1bf54b13c" d="M 6 0 
L -6 -0 
" style="stroke: #000000"/>
    </defs>
    <g clip-path="url(#p57b936a971)">
     <use xlink:href="#mb1bf54b13c" x="432.356484" y="322.587216" style="fill: #1f77b4; stroke: #000000"/>
    </g>
   </g>
   <g id="line2d_10">
    <g clip-path="url(#p57b936a971)">
     <use xlink:href="#mb1bf54b13c" x="432.356484" y="202.47958" style="fill: #1f77b4; stroke: #000000"/>
    </g>
   </g>
   <g id="line2d_11">
    <path d="M 40.603125 322.587216 
L 561.188125 322.587216 
" clip-path="url(#p57b936a971)" style="fill: none; stroke-dasharray: 3.7,1.6; stroke-dashoffset: 0; stroke: #808080"/>
   </g>
   <g id="patch_5">
    <path d="M 40.603125 352.614125 
L 40.603125 22.318125 
" style="fill: none; stroke: #000000; stroke-width: 0.8; stroke-linejoin: miter; stroke-linecap: square"/>
   </g>
   <g id="patch_6">
    <path d="M 561.188125 352.614125 
L 561.188125 22.318125 
" style="fill: none; stroke: #000000; stroke-width: 0.8; stroke-linejoin: miter; stroke-linecap: square"/>
   </g>
   <g id="patch_7">
    <path d="M 40.603125 352.614125 
L 561.188125 352.614125 
" style="fill: none; stroke: #000000; stroke-width: 0.8; stroke-linejoin: miter; stroke-linecap: square"/>
   </g>
   <g id="patch_8">
    <path d="M 40.603125 22.318125 
L 561.188125 22.318125 
" style="fill: none; stroke: #000000; stroke-width: 0.8; stroke-linejoin: miter; stroke-linecap: square"/>
   </g>
   <g id="text_10">
    <!-- ×1 = no saving -->
    <g style="fill: #808080" transform="translate(265.870859 318.08318) scale(0.09 -0.09)">
     <defs>
      <path id="DejaVuSans-3d" d="M 678 2906 
L 4684 2906 
L 4684 2381 
L 678 2381 
L 678 2906 
z
M 678 1631 
L 4684 1631 
L 4684 1100 
L 678 1100 
L 678 1631 
z
" transform="scale(0.015625)"/>
     </defs>
     <use xlink:href="#DejaVuSans-d7"/>
     <use xlink:href="#DejaVuSans-31" transform="translate(83.789062 0)"/>
     <use xlink:href="#DejaVuSans-20" transform="translate(147.412109 0)"/>
     <use xlink:href="#DejaVuSans-3d" transform="translate(179.199219 0)"/>
     <use xlink:href="#DejaVuSans-20" transform="translate(262.988281 0)"/>
     <use xlink:href="#DejaVuSans-6e" transform="translate(294.775391 0)"/>
     <use xlink:href="#DejaVuSans-6f" transform="translate(358.154297 0)"/>
     <use xlink:href="#DejaVuSans-20" transform="translate(419.335938 0)"/>
     <use xlink:href="#DejaVuSans-73" transform="translate(451.123047 0)"/>
     <use xlink:href="#DejaVuSans-61" transform="translate(503.222656 0)"/>
     <use xlink:href="#DejaVuSans-76" transform="translate(564.501953 0)"/>
     <use xlink:href="#DejaVuSans-69" transform="translate(623.681641 0)"/>
     <use xlink:href="#DejaVuSans-6e" transform="translate(651.464844 0)"/>
     <use xlink:href="#DejaVuSans-67" transform="translate(714.84375 0)"/>
    </g>
   </g>
   <g id="text_11">
    <!-- ×9.7 -->
    <g transform="translate(156.387891 55.347725) scale(0.1 -0.1)">
     <defs>
      <path id="DejaVuSans-Bold-d7" d="M 4563 3359 
L 3206 2003 
L 4563 653 
L 4038 128 
L 2681 1478 
L 1325 128 
L 800 653 
L 2156 2003 
L 800 3359 
L 1325 3884 
L 2681 2528 
L 4038 3884 
L 4563 3359 
z
" transform="scale(0.015625)"/>
      <path id="DejaVuSans-Bold-39" d="M 641 103 
L 641 966 
Q 928 831 1190 764 
Q 1453 697 1709 697 
Q 2247 697 2547 995 
Q 2847 1294 2900 1881 
Q 2688 1725 2447 1647 
Q 2206 1569 1925 1569 
Q 1209 1569 770 1986 
Q 331 2403 331 3084 
Q 331 3838 820 4291 
Q 1309 4744 2131 4744 
Q 3044 4744 3544 4128 
Q 4044 3513 4044 2388 
Q 4044 1231 3459 570 
Q 2875 -91 1856 -91 
Q 1528 -91 1228 -42 
Q 928 6 641 103 
z
M 2125 2350 
Q 2441 2350 2600 2554 
Q 2759 2759 2759 3169 
Q 2759 3575 2600 3781 
Q 2441 3988 2125 3988 
Q 1809 3988 1650 3781 
Q 1491 3575 1491 3169 
Q 1491 2759 1650 2554 
Q 1809 2350 2125 2350 
z
" transform="scale(0.015625)"/>
      <path id="DejaVuSans-Bold-2e" d="M 653 1209 
L 1778 1209 
L 1778 0 
L 653 0 
L 653 1209 
z
" transform="scale(0.015625)"/>
      <path id="DejaVuSans-Bold-37" d="M 428 4666 
L 3944 4666 
L 3944 3988 
L 2125 0 
L 953 0 
L 2675 3781 
L 428 3781 
L 428 4666 
z
" transform="scale(0.015625)"/>
     </defs>
     <use xlink:href="#DejaVuSans-Bold-d7"/>
     <use xlink:href="#DejaVuSans-Bold-39" transform="translate(83.789062 0)"/>
     <use xlink:href="#DejaVuSans-Bold-2e" transform="translate(153.369141 0)"/>
     <use xlink:href="#DejaVuSans-Bold-37" transform="translate(191.357422 0)"/>
    </g>
   </g>
   <g id="text_12">
    <!-- ×2.2 (×1–×5) -->
    <g transform="translate(395.161171 196.474198) scale(0.1 -0.1)">
     <defs>
      <path id="DejaVuSans-Bold-32" d="M 1844 884 
L 3897 884 
L 3897 0 
L 506 0 
L 506 884 
L 2209 2388 
Q 2438 2594 2547 2791 
Q 2656 2988 2656 3200 
Q 2656 3528 2436 3728 
Q 2216 3928 1850 3928 
Q 1569 3928 1234 3808 
Q 900 3688 519 3450 
L 519 4475 
Q 925 4609 1322 4679 
Q 1719 4750 2100 4750 
Q 2938 4750 3402 4381 
Q 3866 4013 3866 3353 
Q 3866 2972 3669 2642 
Q 3472 2313 2841 1759 
L 1844 884 
z
" transform="scale(0.015625)"/>
      <path id="DejaVuSans-Bold-20" transform="scale(0.015625)"/>
      <path id="DejaVuSans-Bold-28" d="M 2413 -844 
L 1484 -844 
Q 1006 -72 778 623 
Q 550 1319 550 2003 
Q 550 2688 779 3389 
Q 1009 4091 1484 4856 
L 2413 4856 
Q 2013 4116 1813 3408 
Q 1613 2700 1613 2009 
Q 1613 1319 1811 609 
Q 2009 -100 2413 -844 
z
" transform="scale(0.015625)"/>
      <path id="DejaVuSans-Bold-31" d="M 750 831 
L 1813 831 
L 1813 3847 
L 722 3622 
L 722 4441 
L 1806 4666 
L 2950 4666 
L 2950 831 
L 4013 831 
L 4013 0 
L 750 0 
L 750 831 
z
" transform="scale(0.015625)"/>
      <path id="DejaVuSans-Bold-2013" d="M 344 2156 
L 2856 2156 
L 2856 1350 
L 344 1350 
L 344 2156 
z
" transform="scale(0.015625)"/>
      <path id="DejaVuSans-Bold-35" d="M 678 4666 
L 3669 4666 
L 3669 3781 
L 1638 3781 
L 1638 3059 
Q 1775 3097 1914 3117 
Q 2053 3138 2203 3138 
Q 3056 3138 3531 2711 
Q 4006 2284 4006 1522 
Q 4006 766 3489 337 
Q 2972 -91 2053 -91 
Q 1656 -91 1267 -14 
Q 878 63 494 219 
L 494 1166 
Q 875 947 1217 837 
Q 1559 728 1863 728 
Q 2300 728 2551 942 
Q 2803 1156 2803 1522 
Q 2803 1891 2551 2103 
Q 2300 2316 1863 2316 
Q 1603 2316 1309 2248 
Q 1016 2181 678 2041 
L 678 4666 
z
" transform="scale(0.015625)"/>
      <path id="DejaVuSans-Bold-29" d="M 513 -844 
Q 913 -100 1113 609 
Q 1313 1319 1313 2009 
Q 1313 2700 1113 3408 
Q 913 4116 513 4856 
L 1441 4856 
Q 1916 4091 2145 3389 
Q 2375 2688 2375 2003 
Q 2375 1319 2147 623 
Q 1919 -72 1441 -844 
L 513 -844 
z
" transform="scale(0.015625)"/>
     </defs>
     <use xlink:href="#DejaVuSans-Bold-d7"/>
     <use xlink:href="#DejaVuSans-Bold-32" transform="translate(83.789062 0)"/>
     <use xlink:href="#DejaVuSans-Bold-2e" transform="translate(153.369141 0)"/>
     <use xlink:href="#DejaVuSans-Bold-32" transform="translate(191.357422 0)"/>
     <use xlink:href="#DejaVuSans-Bold-20" transform="translate(260.9375 0)"/>
     <use xlink:href="#DejaVuSans-Bold-28" transform="translate(295.751953 0)"/>
     <use xlink:href="#DejaVuSans-Bold-d7" transform="translate(341.455078 0)"/>
     <use xlink:href="#DejaVuSans-Bold-31" transform="translate(425.244141 0)"/>
     <use xlink:href="#DejaVuSans-Bold-2013" transform="translate(494.824219 0)"/>
     <use xlink:href="#DejaVuSans-Bold-d7" transform="translate(544.824219 0)"/>
     <use xlink:href="#DejaVuSans-Bold-35" transform="translate(628.613281 0)"/>
     <use xlink:href="#DejaVuSans-Bold-29" transform="translate(698.193359 0)"/>
    </g>
   </g>
   <g id="patch_9">
    <path d="M 271.038775 113.587548 
Q 221.125124 87.927028 172.404668 62.879928 
" style="fill: none; stroke: #000000; stroke-width: 1.2; stroke-linecap: round"/>
    <path d="M 174.783359 66.126746 
L 172.404668 62.879928 
L 176.429337 62.925066 
" style="fill: none; stroke: #000000; stroke-width: 1.2; stroke-linecap: round"/>
   </g>
   <g id="text_13">
    <!-- Many cheap iterations over little data: -->
    <g transform="translate(208.873024 123.339657) scale(0.09 -0.09)">
     <defs>
      <path id="DejaVuSans-4d" d="M 628 4666 
L 1569 4666 
L 2759 1491 
L 3956 4666 
L 4897 4666 
L 4897 0 
L 4281 0 
L 4281 4097 
L 3078 897 
L 2444 897 
L 1241 4097 
L 1241 0 
L 628 0 
L 628 4666 
z
" transform="scale(0.015625)"/>
      <path id="DejaVuSans-3a" d="M 750 794 
L 1409 794 
L 1409 0 
L 750 0 
L 750 794 
z
M 750 3309 
L 1409 3309 
L 1409 2516 
L 750 2516 
L 750 3309 
z
" transform="scale(0.015625)"/>
     </defs>
     <use xlink:href="#DejaVuSans-4d"/>
     <use xlink:href="#DejaVuSans-61" transform="translate(86.279297 0)"/>
     <use xlink:href="#DejaVuSans-6e" transform="translate(147.558594 0)"/>
     <use xlink:href="#DejaVuSans-79" transform="translate(210.9375 0)"/>
     <use xlink:href="#DejaVuSans-20" transform="translate(270.117188 0)"/>
     <use xlink:href="#DejaVuSans-63" transform="translate(301.904297 0)"/>
     <use xlink:href="#DejaVuSans-68" transform="translate(356.884766 0)"/>
     <use xlink:href="#DejaVuSans-65" transform="translate(420.263672 0)"/>
     <use xlink:href="#DejaVuSans-61" transform="translate(481.787109 0)"/>
     <use xlink:href="#DejaVuSans-70" transform="translate(543.066406 0)"/>
     <use xlink:href="#DejaVuSans-20" transform="translate(606.542969 0)"/>
     <use xlink:href="#DejaVuSans-69" transform="translate(638.330078 0)"/>
     <use xlink:href="#DejaVuSans-74" transform="translate(666.113281 0)"/>
     <use xlink:href="#DejaVuSans-65" transform="translate(705.322266 0)"/>
     <use xlink:href="#DejaVuSans-72" transform="translate(766.845703 0)"/>
     <use xlink:href="#DejaVuSans-61" transform="translate(807.958984 0)"/>
     <use xlink:href="#DejaVuSans-74" transform="translate(869.238281 0)"/>
     <use xlink:href="#DejaVuSans-69" transform="translate(908.447266 0)"/>
     <use xlink:href="#DejaVuSans-6f" transform="translate(936.230469 0)"/>
     <use xlink:href="#DejaVuSans-6e" transform="translate(997.412109 0)"/>
     <use xlink:href="#DejaVuSans-73" transform="translate(1060.791016 0)"/>
     <use xlink:href="#DejaVuSans-20" transform="translate(1112.890625 0)"/>
     <use xlink:href="#DejaVuSans-6f" transform="translate(1144.677734 0)"/>
     <use xlink:href="#DejaVuSans-76" transform="translate(1205.859375 0)"/>
     <use xlink:href="#DejaVuSans-65" transform="translate(1265.039062 0)"/>
     <use xlink:href="#DejaVuSans-72" transform="translate(1326.5625 0)"/>
     <use xlink:href="#DejaVuSans-20" transform="translate(1367.675781 0)"/>
     <use xlink:href="#DejaVuSans-6c" transform="translate(1399.462891 0)"/>
     <use xlink:href="#DejaVuSans-69" transform="translate(1427.246094 0)"/>
     <use xlink:href="#DejaVuSans-74" transform="translate(1455.029297 0)"/>
     <use xlink:href="#DejaVuSans-74" transform="translate(1494.238281 0)"/>
     <use xlink:href="#DejaVuSans-6c" transform="translate(1533.447266 0)"/>
     <use xlink:href="#DejaVuSans-65" transform="translate(1561.230469 0)"/>
     <use xlink:href="#DejaVuSans-20" transform="translate(1622.753906 0)"/>
     <use xlink:href="#DejaVuSans-64" transform="translate(1654.541016 0)"/>
     <use xlink:href="#DejaVuSans-61" transform="translate(1718.017578 0)"/>
     <use xlink:href="#DejaVuSans-74" transform="translate(1779.296875 0)"/>
     <use xlink:href="#DejaVuSans-61" transform="translate(1818.505859 0)"/>
     <use xlink:href="#DejaVuSans-3a" transform="translate(1879.785156 0)"/>
    </g>
    <!-- the loop IS the cost → big, stable win -->
    <g transform="translate(208.873024 133.417689) scale(0.09 -0.09)">
     <defs>
      <path id="DejaVuSans-49" d="M 628 4666 
L 1259 4666 
L 1259 0 
L 628 0 
L 628 4666 
z
" transform="scale(0.015625)"/>
      <path id="DejaVuSans-53" d="M 3425 4513 
L 3425 3897 
Q 3066 4069 2747 4153 
Q 2428 4238 2131 4238 
Q 1616 4238 1336 4038 
Q 1056 3838 1056 3469 
Q 1056 3159 1242 3001 
Q 1428 2844 1947 2747 
L 2328 2669 
Q 3034 2534 3370 2195 
Q 3706 1856 3706 1288 
Q 3706 609 3251 259 
Q 2797 -91 1919 -91 
Q 1588 -91 1214 -16 
Q 841 59 441 206 
L 441 856 
Q 825 641 1194 531 
Q 1563 422 1919 422 
Q 2459 422 2753 634 
Q 3047 847 3047 1241 
Q 3047 1584 2836 1778 
Q 2625 1972 2144 2069 
L 1759 2144 
Q 1053 2284 737 2584 
Q 422 2884 422 3419 
Q 422 4038 858 4394 
Q 1294 4750 2059 4750 
Q 2388 4750 2728 4690 
Q 3069 4631 3425 4513 
z
" transform="scale(0.015625)"/>
      <path id="DejaVuSans-2192" d="M 5050 2147 
L 5050 1866 
L 3822 638 
L 3447 1013 
L 4175 1741 
L 366 1741 
L 366 2272 
L 4175 2272 
L 3447 3000 
L 3822 3375 
L 5050 2147 
z
" transform="scale(0.015625)"/>
      <path id="DejaVuSans-62" d="M 3116 1747 
Q 3116 2381 2855 2742 
Q 2594 3103 2138 3103 
Q 1681 3103 1420 2742 
Q 1159 2381 1159 1747 
Q 1159 1113 1420 752 
Q 1681 391 2138 391 
Q 2594 391 2855 752 
Q 3116 1113 3116 1747 
z
M 1159 2969 
Q 1341 3281 1617 3432 
Q 1894 3584 2278 3584 
Q 2916 3584 3314 3078 
Q 3713 2572 3713 1747 
Q 3713 922 3314 415 
Q 2916 -91 2278 -91 
Q 1894 -91 1617 61 
Q 1341 213 1159 525 
L 1159 0 
L 581 0 
L 581 4863 
L 1159 4863 
L 1159 2969 
z
" transform="scale(0.015625)"/>
      <path id="DejaVuSans-2c" d="M 750 794 
L 1409 794 
L 1409 256 
L 897 -744 
L 494 -744 
L 750 256 
L 750 794 
z
" transform="scale(0.015625)"/>
      <path id="DejaVuSans-77" d="M 269 3500 
L 844 3500 
L 1563 769 
L 2278 3500 
L 2956 3500 
L 3675 769 
L 4391 3500 
L 4966 3500 
L 4050 0 
L 3372 0 
L 2619 2869 
L 1863 0 
L 1184 0 
L 269 3500 
z
" transform="scale(0.015625)"/>
     </defs>
     <use xlink:href="#DejaVuSans-74"/>
     <use xlink:href="#DejaVuSans-68" transform="translate(39.208984 0)"/>
     <use xlink:href="#DejaVuSans-65" transform="translate(102.587891 0)"/>
     <use xlink:href="#DejaVuSans-20" transform="translate(164.111328 0)"/>
     <use xlink:href="#DejaVuSans-6c" transform="translate(195.898438 0)"/>
     <use xlink:href="#DejaVuSans-6f" transform="translate(223.681641 0)"/>
     <use xlink:href="#DejaVuSans-6f" transform="translate(284.863281 0)"/>
     <use xlink:href="#DejaVuSans-70" transform="translate(346.044922 0)"/>
     <use xlink:href="#DejaVuSans-20" transform="translate(409.521484 0)"/>
     <use xlink:href="#DejaVuSans-49" transform="translate(441.308594 0)"/>
     <use xlink:href="#DejaVuSans-53" transform="translate(470.800781 0)"/>
     <use xlink:href="#DejaVuSans-20" transform="translate(534.277344 0)"/>
     <use xlink:href="#DejaVuSans-74" transform="translate(566.064453 0)"/>
     <use xlink:href="#DejaVuSans-68" transform="translate(605.273438 0)"/>
     <use xlink:href="#DejaVuSans-65" transform="translate(668.652344 0)"/>
     <use xlink:href="#DejaVuSans-20" transform="translate(730.175781 0)"/>
     <use xlink:href="#DejaVuSans-63" transform="translate(761.962891 0)"/>
     <use xlink:href="#DejaVuSans-6f" transform="translate(816.943359 0)"/>
     <use xlink:href="#DejaVuSans-73" transform="translate(878.125 0)"/>
     <use xlink:href="#DejaVuSans-74" transform="translate(930.224609 0)"/>
     <use xlink:href="#DejaVuSans-20" transform="translate(969.433594 0)"/>
     <use xlink:href="#DejaVuSans-2192" transform="translate(1001.220703 0)"/>
     <use xlink:href="#DejaVuSans-20" transform="translate(1085.009766 0)"/>
     <use xlink:href="#DejaVuSans-62" transform="translate(1116.796875 0)"/>
     <use xlink:href="#DejaVuSans-69" transform="translate(1180.273438 0)"/>
     <use xlink:href="#DejaVuSans-67" transform="translate(1208.056641 0)"/>
     <use xlink:href="#DejaVuSans-2c" transform="translate(1271.533203 0)"/>
     <use xlink:href="#DejaVuSans-20" transform="translate(1303.320312 0)"/>
     <use xlink:href="#DejaVuSans-73" transform="translate(1335.107422 0)"/>
     <use xlink:href="#DejaVuSans-74" transform="translate(1387.207031 0)"/>
     <use xlink:href="#DejaVuSans-61" transform="translate(1426.416016 0)"/>
     <use xlink:href="#DejaVuSans-62" transform="translate(1487.695312 0)"/>
     <use xlink:href="#DejaVuSans-6c" transform="translate(1551.171875 0)"/>
     <use xlink:href="#DejaVuSans-65" transform="translate(1578.955078 0)"/>
     <use xlink:href="#DejaVuSans-20" transform="translate(1640.478516 0)"/>
     <use xlink:href="#DejaVuSans-77" transform="translate(1672.265625 0)"/>
     <use xlink:href="#DejaVuSans-69" transform="translate(1754.052734 0)"/>
     <use xlink:href="#DejaVuSans-6e" transform="translate(1781.835938 0)"/>
    </g>
   </g>
   <g id="patch_10">
    <path d="M 383.399127 249.592483 
Q 407.078483 267.470222 429.687098 284.539559 
" style="fill: none; stroke: #000000; stroke-width: 1.2; stroke-linecap: round"/>
    <path d="M 427.898583 280.933839 
L 429.687098 284.539559 
L 425.729413 283.80694 
" style="fill: none; stroke: #000000; stroke-width: 1.2; stroke-linecap: round"/>
   </g>
   <g id="text_14">
    <!-- Cost is the data in context, few -->
    <g transform="translate(287.749539 234.439221) scale(0.09 -0.09)">
     <defs>
      <path id="DejaVuSans-43" d="M 4122 4306 
L 4122 3641 
Q 3803 3938 3442 4084 
Q 3081 4231 2675 4231 
Q 1875 4231 1450 3742 
Q 1025 3253 1025 2328 
Q 1025 1406 1450 917 
Q 1875 428 2675 428 
Q 3081 428 3442 575 
Q 3803 722 4122 1019 
L 4122 359 
Q 3791 134 3420 21 
Q 3050 -91 2638 -91 
Q 1578 -91 968 557 
Q 359 1206 359 2328 
Q 359 3453 968 4101 
Q 1578 4750 2638 4750 
Q 3056 4750 3426 4639 
Q 3797 4528 4122 4306 
z
" transform="scale(0.015625)"/>
      <path id="DejaVuSans-78" d="M 3513 3500 
L 2247 1797 
L 3578 0 
L 2900 0 
L 1881 1375 
L 863 0 
L 184 0 
L 1544 1831 
L 300 3500 
L 978 3500 
L 1906 2253 
L 2834 3500 
L 3513 3500 
z
" transform="scale(0.015625)"/>
      <path id="DejaVuSans-66" d="M 2375 4863 
L 2375 4384 
L 1825 4384 
Q 1516 4384 1395 4259 
Q 1275 4134 1275 3809 
L 1275 3500 
L 2222 3500 
L 2222 3053 
L 1275 3053 
L 1275 0 
L 697 0 
L 697 3053 
L 147 3053 
L 147 3500 
L 697 3500 
L 697 3744 
Q 697 4328 969 4595 
Q 1241 4863 1831 4863 
L 2375 4863 
z
" transform="scale(0.015625)"/>
     </defs>
     <use xlink:href="#DejaVuSans-43"/>
     <use xlink:href="#DejaVuSans-6f" transform="translate(69.824219 0)"/>
     <use xlink:href="#DejaVuSans-73" transform="translate(131.005859 0)"/>
     <use xlink:href="#DejaVuSans-74" transform="translate(183.105469 0)"/>
     <use xlink:href="#DejaVuSans-20" transform="translate(222.314453 0)"/>
     <use xlink:href="#DejaVuSans-69" transform="translate(254.101562 0)"/>
     <use xlink:href="#DejaVuSans-73" transform="translate(281.884766 0)"/>
     <use xlink:href="#DejaVuSans-20" transform="translate(333.984375 0)"/>
     <use xlink:href="#DejaVuSans-74" transform="translate(365.771484 0)"/>
     <use xlink:href="#DejaVuSans-68" transform="translate(404.980469 0)"/>
     <use xlink:href="#DejaVuSans-65" transform="translate(468.359375 0)"/>
     <use xlink:href="#DejaVuSans-20" transform="translate(529.882812 0)"/>
     <use xlink:href="#DejaVuSans-64" transform="translate(561.669922 0)"/>
     <use xlink:href="#DejaVuSans-61" transform="translate(625.146484 0)"/>
     <use xlink:href="#DejaVuSans-74" transform="translate(686.425781 0)"/>
     <use xlink:href="#DejaVuSans-61" transform="translate(725.634766 0)"/>
     <use xlink:href="#DejaVuSans-20" transform="translate(786.914062 0)"/>
     <use xlink:href="#DejaVuSans-69" transform="translate(818.701172 0)"/>
     <use xlink:href="#DejaVuSans-6e" transform="translate(846.484375 0)"/>
     <use xlink:href="#DejaVuSans-20" transform="translate(909.863281 0)"/>
     <use xlink:href="#DejaVuSans-63" transform="translate(941.650391 0)"/>
     <use xlink:href="#DejaVuSans-6f" transform="translate(996.630859 0)"/>
     <use xlink:href="#DejaVuSans-6e" transform="translate(1057.8125 0)"/>
     <use xlink:href="#DejaVuSans-74" transform="translate(1121.191406 0)"/>
     <use xlink:href="#DejaVuSans-65" transform="translate(1160.400391 0)"/>
     <use xlink:href="#DejaVuSans-78" transform="translate(1220.173828 0)"/>
     <use xlink:href="#DejaVuSans-74" transform="translate(1279.353516 0)"/>
     <use xlink:href="#DejaVuSans-2c" transform="translate(1318.5625 0)"/>
     <use xlink:href="#DejaVuSans-20" transform="translate(1350.349609 0)"/>
     <use xlink:href="#DejaVuSans-66" transform="translate(1382.136719 0)"/>
     <use xlink:href="#DejaVuSans-65" transform="translate(1417.341797 0)"/>
     <use xlink:href="#DejaVuSans-77" transform="translate(1478.865234 0)"/>
    </g>
    <!-- iterations to cut → small &amp; variable -->
    <g transform="translate(287.749539 244.517252) scale(0.09 -0.09)">
     <defs>
      <path id="DejaVuSans-26" d="M 1556 2509 
Q 1272 2256 1139 2004 
Q 1006 1753 1006 1478 
Q 1006 1022 1337 719 
Q 1669 416 2169 416 
Q 2466 416 2725 514 
Q 2984 613 3213 813 
L 1556 2509 
z
M 1997 2859 
L 3584 1234 
Q 3769 1513 3872 1830 
Q 3975 2147 3994 2503 
L 4575 2503 
Q 4538 2091 4375 1687 
Q 4213 1284 3922 891 
L 4794 0 
L 4006 0 
L 3559 459 
Q 3234 181 2878 45 
Q 2522 -91 2113 -91 
Q 1359 -91 881 339 
Q 403 769 403 1441 
Q 403 1841 612 2192 
Q 822 2544 1241 2853 
Q 1091 3050 1012 3245 
Q 934 3441 934 3628 
Q 934 4134 1281 4442 
Q 1628 4750 2203 4750 
Q 2463 4750 2720 4694 
Q 2978 4638 3244 4525 
L 3244 3956 
Q 2972 4103 2725 4179 
Q 2478 4256 2266 4256 
Q 1938 4256 1733 4082 
Q 1528 3909 1528 3634 
Q 1528 3475 1620 3314 
Q 1713 3153 1997 2859 
z
" transform="scale(0.015625)"/>
     </defs>
     <use xlink:href="#DejaVuSans-69"/>
     <use xlink:href="#DejaVuSans-74" transform="translate(27.783203 0)"/>
     <use xlink:href="#DejaVuSans-65" transform="translate(66.992188 0)"/>
     <use xlink:href="#DejaVuSans-72" transform="translate(128.515625 0)"/>
     <use xlink:href="#DejaVuSans-61" transform="translate(169.628906 0)"/>
     <use xlink:href="#DejaVuSans-74" transform="translate(230.908203 0)"/>
     <use xlink:href="#DejaVuSans-69" transform="translate(270.117188 0)"/>
     <use xlink:href="#DejaVuSans-6f" transform="translate(297.900391 0)"/>
     <use xlink:href="#DejaVuSans-6e" transform="translate(359.082031 0)"/>
     <use xlink:href="#DejaVuSans-73" transform="translate(422.460938 0)"/>
     <use xlink:href="#DejaVuSans-20" transform="translate(474.560547 0)"/>
     <use xlink:href="#DejaVuSans-74" transform="translate(506.347656 0)"/>
     <use xlink:href="#DejaVuSans-6f" transform="translate(545.556641 0)"/>
     <use xlink:href="#DejaVuSans-20" transform="translate(606.738281 0)"/>
     <use xlink:href="#DejaVuSans-63" transform="translate(638.525391 0)"/>
     <use xlink:href="#DejaVuSans-75" transform="translate(693.505859 0)"/>
     <use xlink:href="#DejaVuSans-74" transform="translate(756.884766 0)"/>
     <use xlink:href="#DejaVuSans-20" transform="translate(796.09375 0)"/>
     <use xlink:href="#DejaVuSans-2192" transform="translate(827.880859 0)"/>
     <use xlink:href="#DejaVuSans-20" transform="translate(911.669922 0)"/>
     <use xlink:href="#DejaVuSans-73" transform="translate(943.457031 0)"/>
     <use xlink:href="#DejaVuSans-6d" transform="translate(995.556641 0)"/>
     <use xlink:href="#DejaVuSans-61" transform="translate(1092.96875 0)"/>
     <use xlink:href="#DejaVuSans-6c" transform="translate(1154.248047 0)"/>
     <use xlink:href="#DejaVuSans-6c" transform="translate(1182.03125 0)"/>
     <use xlink:href="#DejaVuSans-20" transform="translate(1209.814453 0)"/>
     <use xlink:href="#DejaVuSans-26" transform="translate(1241.601562 0)"/>
     <use xlink:href="#DejaVuSans-20" transform="translate(1319.580078 0)"/>
     <use xlink:href="#DejaVuSans-76" transform="translate(1351.367188 0)"/>
     <use xlink:href="#DejaVuSans-61" transform="translate(1410.546875 0)"/>
     <use xlink:href="#DejaVuSans-72" transform="translate(1471.826172 0)"/>
     <use xlink:href="#DejaVuSans-69" transform="translate(1512.939453 0)"/>
     <use xlink:href="#DejaVuSans-61" transform="translate(1540.722656 0)"/>
     <use xlink:href="#DejaVuSans-62" transform="translate(1602.001953 0)"/>
     <use xlink:href="#DejaVuSans-6c" transform="translate(1665.478516 0)"/>
     <use xlink:href="#DejaVuSans-65" transform="translate(1693.261719 0)"/>
    </g>
   </g>
   <g id="text_15">
    <!-- Distillation's saving scales with iteration overhead, not task size -->
    <g transform="translate(81.72125 16.318125) scale(0.12 -0.12)">
     <defs>
      <path id="DejaVuSans-Bold-44" d="M 1791 3756 
L 1791 909 
L 2222 909 
Q 2959 909 3348 1275 
Q 3738 1641 3738 2338 
Q 3738 3031 3350 3393 
Q 2963 3756 2222 3756 
L 1791 3756 
z
M 588 4666 
L 1856 4666 
Q 2919 4666 3439 4514 
Q 3959 4363 4331 4000 
Q 4659 3684 4818 3271 
Q 4978 2859 4978 2338 
Q 4978 1809 4818 1395 
Q 4659 981 4331 666 
Q 3956 303 3431 151 
Q 2906 0 1856 0 
L 588 0 
L 588 4666 
z
" transform="scale(0.015625)"/>
      <path id="DejaVuSans-Bold-69" d="M 538 3500 
L 1656 3500 
L 1656 0 
L 538 0 
L 538 3500 
z
M 538 4863 
L 1656 4863 
L 1656 3950 
L 538 3950 
L 538 4863 
z
" transform="scale(0.015625)"/>
      <path id="DejaVuSans-Bold-73" d="M 3272 3391 
L 3272 2541 
Q 2913 2691 2578 2766 
Q 2244 2841 1947 2841 
Q 1628 2841 1473 2761 
Q 1319 2681 1319 2516 
Q 1319 2381 1436 2309 
Q 1553 2238 1856 2203 
L 2053 2175 
Q 2913 2066 3209 1816 
Q 3506 1566 3506 1031 
Q 3506 472 3093 190 
Q 2681 -91 1863 -91 
Q 1516 -91 1145 -36 
Q 775 19 384 128 
L 384 978 
Q 719 816 1070 734 
Q 1422 653 1784 653 
Q 2113 653 2278 743 
Q 2444 834 2444 1013 
Q 2444 1163 2330 1236 
Q 2216 1309 1875 1350 
L 1678 1375 
Q 931 1469 631 1722 
Q 331 1975 331 2491 
Q 331 3047 712 3315 
Q 1094 3584 1881 3584 
Q 2191 3584 2531 3537 
Q 2872 3491 3272 3391 
z
" transform="scale(0.015625)"/>
      <path id="DejaVuSans-Bold-74" d="M 1759 4494 
L 1759 3500 
L 2913 3500 
L 2913 2700 
L 1759 2700 
L 1759 1216 
Q 1759 972 1856 886 
Q 1953 800 2241 800 
L 2816 800 
L 2816 0 
L 1856 0 
Q 1194 0 917 276 
Q 641 553 641 1216 
L 641 2700 
L 84 2700 
L 84 3500 
L 641 3500 
L 641 4494 
L 1759 4494 
z
" transform="scale(0.015625)"/>
      <path id="DejaVuSans-Bold-6c" d="M 538 4863 
L 1656 4863 
L 1656 0 
L 538 0 
L 538 4863 
z
" transform="scale(0.015625)"/>
      <path id="DejaVuSans-Bold-61" d="M 2106 1575 
Q 1756 1575 1579 1456 
Q 1403 1338 1403 1106 
Q 1403 894 1545 773 
Q 1688 653 1941 653 
Q 2256 653 2472 879 
Q 2688 1106 2688 1447 
L 2688 1575 
L 2106 1575 
z
M 3816 1997 
L 3816 0 
L 2688 0 
L 2688 519 
Q 2463 200 2181 54 
Q 1900 -91 1497 -91 
Q 953 -91 614 226 
Q 275 544 275 1050 
Q 275 1666 698 1953 
Q 1122 2241 2028 2241 
L 2688 2241 
L 2688 2328 
Q 2688 2594 2478 2717 
Q 2269 2841 1825 2841 
Q 1466 2841 1156 2769 
Q 847 2697 581 2553 
L 581 3406 
Q 941 3494 1303 3539 
Q 1666 3584 2028 3584 
Q 2975 3584 3395 3211 
Q 3816 2838 3816 1997 
z
" transform="scale(0.015625)"/>
      <path id="DejaVuSans-Bold-6f" d="M 2203 2784 
Q 1831 2784 1636 2517 
Q 1441 2250 1441 1747 
Q 1441 1244 1636 976 
Q 1831 709 2203 709 
Q 2569 709 2762 976 
Q 2956 1244 2956 1747 
Q 2956 2250 2762 2517 
Q 2569 2784 2203 2784 
z
M 2203 3584 
Q 3106 3584 3614 3096 
Q 4122 2609 4122 1747 
Q 4122 884 3614 396 
Q 3106 -91 2203 -91 
Q 1297 -91 786 396 
Q 275 884 275 1747 
Q 275 2609 786 3096 
Q 1297 3584 2203 3584 
z
" transform="scale(0.015625)"/>
      <path id="DejaVuSans-Bold-6e" d="M 4056 2131 
L 4056 0 
L 2931 0 
L 2931 347 
L 2931 1631 
Q 2931 2084 2911 2256 
Q 2891 2428 2841 2509 
Q 2775 2619 2662 2680 
Q 2550 2741 2406 2741 
Q 2056 2741 1856 2470 
Q 1656 2200 1656 1722 
L 1656 0 
L 538 0 
L 538 3500 
L 1656 3500 
L 1656 2988 
Q 1909 3294 2193 3439 
Q 2478 3584 2822 3584 
Q 3428 3584 3742 3212 
Q 4056 2841 4056 2131 
z
" transform="scale(0.015625)"/>
      <path id="DejaVuSans-Bold-27" d="M 1350 4666 
L 1350 2931 
L 609 2931 
L 609 4666 
L 1350 4666 
z
" transform="scale(0.015625)"/>
      <path id="DejaVuSans-Bold-76" d="M 97 3500 
L 1216 3500 
L 2088 1081 
L 2956 3500 
L 4078 3500 
L 2700 0 
L 1472 0 
L 97 3500 
z
" transform="scale(0.015625)"/>
      <path id="DejaVuSans-Bold-67" d="M 2919 594 
Q 2688 288 2409 144 
Q 2131 0 1766 0 
Q 1125 0 706 504 
Q 288 1009 288 1791 
Q 288 2575 706 3076 
Q 1125 3578 1766 3578 
Q 2131 3578 2409 3434 
Q 2688 3291 2919 2981 
L 2919 3500 
L 4044 3500 
L 4044 353 
Q 4044 -491 3511 -936 
Q 2978 -1381 1966 -1381 
Q 1638 -1381 1331 -1331 
Q 1025 -1281 716 -1178 
L 716 -306 
Q 1009 -475 1290 -558 
Q 1572 -641 1856 -641 
Q 2406 -641 2662 -400 
Q 2919 -159 2919 353 
L 2919 594 
z
M 2181 2772 
Q 1834 2772 1640 2515 
Q 1447 2259 1447 1791 
Q 1447 1309 1634 1061 
Q 1822 813 2181 813 
Q 2531 813 2725 1069 
Q 2919 1325 2919 1791 
Q 2919 2259 2725 2515 
Q 2531 2772 2181 2772 
z
" transform="scale(0.015625)"/>
      <path id="DejaVuSans-Bold-63" d="M 3366 3391 
L 3366 2478 
Q 3138 2634 2908 2709 
Q 2678 2784 2431 2784 
Q 1963 2784 1702 2511 
Q 1441 2238 1441 1747 
Q 1441 1256 1702 982 
Q 1963 709 2431 709 
Q 2694 709 2930 787 
Q 3166 866 3366 1019 
L 3366 103 
Q 3103 6 2833 -42 
Q 2563 -91 2291 -91 
Q 1344 -91 809 395 
Q 275 881 275 1747 
Q 275 2613 809 3098 
Q 1344 3584 2291 3584 
Q 2566 3584 2833 3536 
Q 3100 3488 3366 3391 
z
" transform="scale(0.015625)"/>
      <path id="DejaVuSans-Bold-65" d="M 4031 1759 
L 4031 1441 
L 1416 1441 
Q 1456 1047 1700 850 
Q 1944 653 2381 653 
Q 2734 653 3104 758 
Q 3475 863 3866 1075 
L 3866 213 
Q 3469 63 3072 -14 
Q 2675 -91 2278 -91 
Q 1328 -91 801 392 
Q 275 875 275 1747 
Q 275 2603 792 3093 
Q 1309 3584 2216 3584 
Q 3041 3584 3536 3087 
Q 4031 2591 4031 1759 
z
M 2881 2131 
Q 2881 2450 2695 2645 
Q 2509 2841 2209 2841 
Q 1884 2841 1681 2658 
Q 1478 2475 1428 2131 
L 2881 2131 
z
" transform="scale(0.015625)"/>
      <path id="DejaVuSans-Bold-77" d="M 225 3500 
L 1313 3500 
L 1900 1088 
L 2491 3500 
L 3425 3500 
L 4013 1113 
L 4603 3500 
L 5691 3500 
L 4769 0 
L 3547 0 
L 2956 2406 
L 2369 0 
L 1147 0 
L 225 3500 
z
" transform="scale(0.015625)"/>
      <path id="DejaVuSans-Bold-68" d="M 4056 2131 
L 4056 0 
L 2931 0 
L 2931 347 
L 2931 1625 
Q 2931 2084 2911 2256 
Q 2891 2428 2841 2509 
Q 2775 2619 2662 2680 
Q 2550 2741 2406 2741 
Q 2056 2741 1856 2470 
Q 1656 2200 1656 1722 
L 1656 0 
L 538 0 
L 538 4863 
L 1656 4863 
L 1656 2988 
Q 1909 3294 2193 3439 
Q 2478 3584 2822 3584 
Q 3428 3584 3742 3212 
Q 4056 2841 4056 2131 
z
" transform="scale(0.015625)"/>
      <path id="DejaVuSans-Bold-72" d="M 3138 2547 
Q 2991 2616 2845 2648 
Q 2700 2681 2553 2681 
Q 2122 2681 1889 2404 
Q 1656 2128 1656 1613 
L 1656 0 
L 538 0 
L 538 3500 
L 1656 3500 
L 1656 2925 
Q 1872 3269 2151 3426 
Q 2431 3584 2822 3584 
Q 2878 3584 2943 3579 
Q 3009 3575 3134 3559 
L 3138 2547 
z
" transform="scale(0.015625)"/>
      <path id="DejaVuSans-Bold-64" d="M 2919 2988 
L 2919 4863 
L 4044 4863 
L 4044 0 
L 2919 0 
L 2919 506 
Q 2688 197 2409 53 
Q 2131 -91 1766 -91 
Q 1119 -91 703 423 
Q 288 938 288 1747 
Q 288 2556 703 3070 
Q 1119 3584 1766 3584 
Q 2128 3584 2408 3439 
Q 2688 3294 2919 2988 
z
M 2181 722 
Q 2541 722 2730 984 
Q 2919 1247 2919 1747 
Q 2919 2247 2730 2509 
Q 2541 2772 2181 2772 
Q 1825 2772 1636 2509 
Q 1447 2247 1447 1747 
Q 1447 1247 1636 984 
Q 1825 722 2181 722 
z
" transform="scale(0.015625)"/>
      <path id="DejaVuSans-Bold-2c" d="M 653 1209 
L 1778 1209 
L 1778 256 
L 1006 -909 
L 341 -909 
L 653 256 
L 653 1209 
z
" transform="scale(0.015625)"/>
      <path id="DejaVuSans-Bold-6b" d="M 538 4863 
L 1656 4863 
L 1656 2216 
L 2944 3500 
L 4244 3500 
L 2534 1894 
L 4378 0 
L 3022 0 
L 1656 1459 
L 1656 0 
L 538 0 
L 538 4863 
z
" transform="scale(0.015625)"/>
      <path id="DejaVuSans-Bold-7a" d="M 366 3500 
L 3419 3500 
L 3419 2719 
L 1575 800 
L 3419 800 
L 3419 0 
L 288 0 
L 288 781 
L 2131 2700 
L 366 2700 
L 366 3500 
z
" transform="scale(0.015625)"/>
     </defs>
     <use xlink:href="#DejaVuSans-Bold-44"/>
     <use xlink:href="#DejaVuSans-Bold-69" transform="translate(83.007812 0)"/>
     <use xlink:href="#DejaVuSans-Bold-73" transform="translate(117.285156 0)"/>
     <use xlink:href="#DejaVuSans-Bold-74" transform="translate(176.806641 0)"/>
     <use xlink:href="#DejaVuSans-Bold-69" transform="translate(224.609375 0)"/>
     <use xlink:href="#DejaVuSans-Bold-6c" transform="translate(258.886719 0)"/>
     <use xlink:href="#DejaVuSans-Bold-6c" transform="translate(293.164062 0)"/>
     <use xlink:href="#DejaVuSans-Bold-61" transform="translate(327.441406 0)"/>
     <use xlink:href="#DejaVuSans-Bold-74" transform="translate(394.921875 0)"/>
     <use xlink:href="#DejaVuSans-Bold-69" transform="translate(442.724609 0)"/>
     <use xlink:href="#DejaVuSans-Bold-6f" transform="translate(477.001953 0)"/>
     <use xlink:href="#DejaVuSans-Bold-6e" transform="translate(545.703125 0)"/>
     <use xlink:href="#DejaVuSans-Bold-27" transform="translate(616.894531 0)"/>
     <use xlink:href="#DejaVuSans-Bold-73" transform="translate(647.509766 0)"/>
     <use xlink:href="#DejaVuSans-Bold-20" transform="translate(707.03125 0)"/>
     <use xlink:href="#DejaVuSans-Bold-73" transform="translate(741.845703 0)"/>
     <use xlink:href="#DejaVuSans-Bold-61" transform="translate(801.367188 0)"/>
     <use xlink:href="#DejaVuSans-Bold-76" transform="translate(868.847656 0)"/>
     <use xlink:href="#DejaVuSans-Bold-69" transform="translate(934.033203 0)"/>
     <use xlink:href="#DejaVuSans-Bold-6e" transform="translate(968.310547 0)"/>
     <use xlink:href="#DejaVuSans-Bold-67" transform="translate(1039.501953 0)"/>
     <use xlink:href="#DejaVuSans-Bold-20" transform="translate(1111.083984 0)"/>
     <use xlink:href="#DejaVuSans-Bold-73" transform="translate(1145.898438 0)"/>
     <use xlink:href="#DejaVuSans-Bold-63" transform="translate(1205.419922 0)"/>
     <use xlink:href="#DejaVuSans-Bold-61" transform="translate(1264.697266 0)"/>
     <use xlink:href="#DejaVuSans-Bold-6c" transform="translate(1332.177734 0)"/>
     <use xlink:href="#DejaVuSans-Bold-65" transform="translate(1366.455078 0)"/>
     <use xlink:href="#DejaVuSans-Bold-73" transform="translate(1434.277344 0)"/>
     <use xlink:href="#DejaVuSans-Bold-20" transform="translate(1493.798828 0)"/>
     <use xlink:href="#DejaVuSans-Bold-77" transform="translate(1528.613281 0)"/>
     <use xlink:href="#DejaVuSans-Bold-69" transform="translate(1620.996094 0)"/>
     <use xlink:href="#DejaVuSans-Bold-74" transform="translate(1655.273438 0)"/>
     <use xlink:href="#DejaVuSans-Bold-68" transform="translate(1703.076172 0)"/>
     <use xlink:href="#DejaVuSans-Bold-20" transform="translate(1774.267578 0)"/>
     <use xlink:href="#DejaVuSans-Bold-69" transform="translate(1809.082031 0)"/>
     <use xlink:href="#DejaVuSans-Bold-74" transform="translate(1843.359375 0)"/>
     <use xlink:href="#DejaVuSans-Bold-65" transform="translate(1891.162109 0)"/>
     <use xlink:href="#DejaVuSans-Bold-72" transform="translate(1958.984375 0)"/>
     <use xlink:href="#DejaVuSans-Bold-61" transform="translate(2008.300781 0)"/>
     <use xlink:href="#DejaVuSans-Bold-74" transform="translate(2075.78125 0)"/>
     <use xlink:href="#DejaVuSans-Bold-69" transform="translate(2123.583984 0)"/>
     <use xlink:href="#DejaVuSans-Bold-6f" transform="translate(2157.861328 0)"/>
     <use xlink:href="#DejaVuSans-Bold-6e" transform="translate(2226.5625 0)"/>
     <use xlink:href="#DejaVuSans-Bold-20" transform="translate(2297.753906 0)"/>
     <use xlink:href="#DejaVuSans-Bold-6f" transform="translate(2332.568359 0)"/>
     <use xlink:href="#DejaVuSans-Bold-76" transform="translate(2401.269531 0)"/>
     <use xlink:href="#DejaVuSans-Bold-65" transform="translate(2466.455078 0)"/>
     <use xlink:href="#DejaVuSans-Bold-72" transform="translate(2534.277344 0)"/>
     <use xlink:href="#DejaVuSans-Bold-68" transform="translate(2583.59375 0)"/>
     <use xlink:href="#DejaVuSans-Bold-65" transform="translate(2654.785156 0)"/>
     <use xlink:href="#DejaVuSans-Bold-61" transform="translate(2722.607422 0)"/>
     <use xlink:href="#DejaVuSans-Bold-64" transform="translate(2790.087891 0)"/>
     <use xlink:href="#DejaVuSans-Bold-2c" transform="translate(2861.669922 0)"/>
     <use xlink:href="#DejaVuSans-Bold-20" transform="translate(2899.658203 0)"/>
     <use xlink:href="#DejaVuSans-Bold-6e" transform="translate(2934.472656 0)"/>
     <use xlink:href="#DejaVuSans-Bold-6f" transform="translate(3005.664062 0)"/>
     <use xlink:href="#DejaVuSans-Bold-74" transform="translate(3074.365234 0)"/>
     <use xlink:href="#DejaVuSans-Bold-20" transform="translate(3122.167969 0)"/>
     <use xlink:href="#DejaVuSans-Bold-74" transform="translate(3156.982422 0)"/>
     <use xlink:href="#DejaVuSans-Bold-61" transform="translate(3204.785156 0)"/>
     <use xlink:href="#DejaVuSans-Bold-73" transform="translate(3272.265625 0)"/>
     <use xlink:href="#DejaVuSans-Bold-6b" transform="translate(3331.787109 0)"/>
     <use xlink:href="#DejaVuSans-Bold-20" transform="translate(3398.291016 0)"/>
     <use xlink:href="#DejaVuSans-Bold-73" transform="translate(3433.105469 0)"/>
     <use xlink:href="#DejaVuSans-Bold-69" transform="translate(3492.626953 0)"/>
     <use xlink:href="#DejaVuSans-Bold-7a" transform="translate(3526.904297 0)"/>
     <use xlink:href="#DejaVuSans-Bold-65" transform="translate(3585.107422 0)"/>
    </g>
   </g>
  </g>
  <g id="text_16">
   <!-- Data: Benchmark 2 "Auto-distillation curve" (2026-06-12). Heavy is a single stochastic sample. -->
   <g style="fill: #808080" transform="translate(69.679844 414.836719) scale(0.09 -0.09)">
    <defs>
     <path id="DejaVuSans-42" d="M 1259 2228 
L 1259 519 
L 2272 519 
Q 2781 519 3026 730 
Q 3272 941 3272 1375 
Q 3272 1813 3026 2020 
Q 2781 2228 2272 2228 
L 1259 2228 
z
M 1259 4147 
L 1259 2741 
L 2194 2741 
Q 2656 2741 2882 2914 
Q 3109 3088 3109 3444 
Q 3109 3797 2882 3972 
Q 2656 4147 2194 4147 
L 1259 4147 
z
M 628 4666 
L 2241 4666 
Q 2963 4666 3353 4366 
Q 3744 4066 3744 3513 
Q 3744 3084 3544 2831 
Q 3344 2578 2956 2516 
Q 3422 2416 3680 2098 
Q 3938 1781 3938 1306 
Q 3938 681 3513 340 
Q 3088 0 2303 0 
L 628 0 
L 628 4666 
z
" transform="scale(0.015625)"/>
     <path id="DejaVuSans-6b" d="M 581 4863 
L 1159 4863 
L 1159 1991 
L 2875 3500 
L 3609 3500 
L 1753 1863 
L 3688 0 
L 2938 0 
L 1159 1709 
L 1159 0 
L 581 0 
L 581 4863 
z
" transform="scale(0.015625)"/>
     <path id="DejaVuSans-22" d="M 1147 4666 
L 1147 2931 
L 616 2931 
L 616 4666 
L 1147 4666 
z
M 2328 4666 
L 2328 2931 
L 1797 2931 
L 1797 4666 
L 2328 4666 
z
" transform="scale(0.015625)"/>
     <path id="DejaVuSans-41" d="M 2188 4044 
L 1331 1722 
L 3047 1722 
L 2188 4044 
z
M 1831 4666 
L 2547 4666 
L 4325 0 
L 3669 0 
L 3244 1197 
L 1141 1197 
L 716 0 
L 50 0 
L 1831 4666 
z
" transform="scale(0.015625)"/>
     <path id="DejaVuSans-2e" d="M 684 794 
L 1344 794 
L 1344 0 
L 684 0 
L 684 794 
z
" transform="scale(0.015625)"/>
    </defs>
    <use xlink:href="#DejaVuSans-44"/>
    <use xlink:href="#DejaVuSans-61" transform="translate(77.001953 0)"/>
    <use xlink:href="#DejaVuSans-74" transform="translate(138.28125 0)"/>
    <use xlink:href="#DejaVuSans-61" transform="translate(177.490234 0)"/>
    <use xlink:href="#DejaVuSans-3a" transform="translate(238.769531 0)"/>
    <use xlink:href="#DejaVuSans-20" transform="translate(272.460938 0)"/>
    <use xlink:href="#DejaVuSans-42" transform="translate(304.248047 0)"/>
    <use xlink:href="#DejaVuSans-65" transform="translate(372.851562 0)"/>
    <use xlink:href="#DejaVuSans-6e" transform="translate(434.375 0)"/>
    <use xlink:href="#DejaVuSans-63" transform="translate(497.753906 0)"/>
    <use xlink:href="#DejaVuSans-68" transform="translate(552.734375 0)"/>
    <use xlink:href="#DejaVuSans-6d" transform="translate(616.113281 0)"/>
    <use xlink:href="#DejaVuSans-61" transform="translate(713.525391 0)"/>
    <use xlink:href="#DejaVuSans-72" transform="translate(774.804688 0)"/>
    <use xlink:href="#DejaVuSans-6b" transform="translate(815.917969 0)"/>
    <use xlink:href="#DejaVuSans-20" transform="translate(873.828125 0)"/>
    <use xlink:href="#DejaVuSans-32" transform="translate(905.615234 0)"/>
    <use xlink:href="#DejaVuSans-20" transform="translate(969.238281 0)"/>
    <use xlink:href="#DejaVuSans-22" transform="translate(1001.025391 0)"/>
    <use xlink:href="#DejaVuSans-41" transform="translate(1047.021484 0)"/>
    <use xlink:href="#DejaVuSans-75" transform="translate(1115.429688 0)"/>
    <use xlink:href="#DejaVuSans-74" transform="translate(1178.808594 0)"/>
    <use xlink:href="#DejaVuSans-6f" transform="translate(1218.017578 0)"/>
    <use xlink:href="#DejaVuSans-2d" transform="translate(1281.074219 0)"/>
    <use xlink:href="#DejaVuSans-64" transform="translate(1317.158203 0)"/>
    <use xlink:href="#DejaVuSans-69" transform="translate(1380.634766 0)"/>
    <use xlink:href="#DejaVuSans-73" transform="translate(1408.417969 0)"/>
    <use xlink:href="#DejaVuSans-74" transform="translate(1460.517578 0)"/>
    <use xlink:href="#DejaVuSans-69" transform="translate(1499.726562 0)"/>
    <use xlink:href="#DejaVuSans-6c" transform="translate(1527.509766 0)"/>
    <use xlink:href="#DejaVuSans-6c" transform="translate(1555.292969 0)"/>
    <use xlink:href="#DejaVuSans-61" transform="translate(1583.076172 0)"/>
    <use xlink:href="#DejaVuSans-74" transform="translate(1644.355469 0)"/>
    <use xlink:href="#DejaVuSans-69" transform="translate(1683.564453 0)"/>
    <use xlink:href="#DejaVuSans-6f" transform="translate(1711.347656 0)"/>
    <use xlink:href="#DejaVuSans-6e" transform="translate(1772.529297 0)"/>
    <use xlink:href="#DejaVuSans-20" transform="translate(1835.908203 0)"/>
    <use xlink:href="#DejaVuSans-63" transform="translate(1867.695312 0)"/>
    <use xlink:href="#DejaVuSans-75" transform="translate(1922.675781 0)"/>
    <use xlink:href="#DejaVuSans-72" transform="translate(1986.054688 0)"/>
    <use xlink:href="#DejaVuSans-76" transform="translate(2027.167969 0)"/>
    <use xlink:href="#DejaVuSans-65" transform="translate(2086.347656 0)"/>
    <use xlink:href="#DejaVuSans-22" transform="translate(2147.871094 0)"/>
    <use xlink:href="#DejaVuSans-20" transform="translate(2193.867188 0)"/>
    <use xlink:href="#DejaVuSans-28" transform="translate(2225.654297 0)"/>
    <use xlink:href="#DejaVuSans-32" transform="translate(2264.667969 0)"/>
    <use xlink:href="#DejaVuSans-30" transform="translate(2328.291016 0)"/>
    <use xlink:href="#DejaVuSans-32" transform="translate(2391.914062 0)"/>
    <use xlink:href="#DejaVuSans-36" transform="translate(2455.537109 0)"/>
    <use xlink:href="#DejaVuSans-2d" transform="translate(2519.160156 0)"/>
    <use xlink:href="#DejaVuSans-30" transform="translate(2555.244141 0)"/>
    <use xlink:href="#DejaVuSans-36" transform="translate(2618.867188 0)"/>
    <use xlink:href="#DejaVuSans-2d" transform="translate(2682.490234 0)"/>
    <use xlink:href="#DejaVuSans-31" transform="translate(2718.574219 0)"/>
    <use xlink:href="#DejaVuSans-32" transform="translate(2782.197266 0)"/>
    <use xlink:href="#DejaVuSans-29" transform="translate(2845.820312 0)"/>
    <use xlink:href="#DejaVuSans-2e" transform="translate(2884.833984 0)"/>
    <use xlink:href="#DejaVuSans-20" transform="translate(2916.621094 0)"/>
    <use xlink:href="#DejaVuSans-48" transform="translate(2948.408203 0)"/>
    <use xlink:href="#DejaVuSans-65" transform="translate(3023.603516 0)"/>
    <use xlink:href="#DejaVuSans-61" transform="translate(3085.126953 0)"/>
    <use xlink:href="#DejaVuSans-76" transform="translate(3146.40625 0)"/>
    <use xlink:href="#DejaVuSans-79" transform="translate(3205.585938 0)"/>
    <use xlink:href="#DejaVuSans-20" transform="translate(3264.765625 0)"/>
    <use xlink:href="#DejaVuSans-69" transform="translate(3296.552734 0)"/>
    <use xlink:href="#DejaVuSans-73" transform="translate(3324.335938 0)"/>
    <use xlink:href="#DejaVuSans-20" transform="translate(3376.435547 0)"/>
    <use xlink:href="#DejaVuSans-61" transform="translate(3408.222656 0)"/>
    <use xlink:href="#DejaVuSans-20" transform="translate(3469.501953 0)"/>
    <use xlink:href="#DejaVuSans-73" transform="translate(3501.289062 0)"/>
    <use xlink:href="#DejaVuSans-69" transform="translate(3553.388672 0)"/>
    <use xlink:href="#DejaVuSans-6e" transform="translate(3581.171875 0)"/>
    <use xlink:href="#DejaVuSans-67" transform="translate(3644.550781 0)"/>
    <use xlink:href="#DejaVuSans-6c" transform="translate(3708.027344 0)"/>
    <use xlink:href="#DejaVuSans-65" transform="translate(3735.810547 0)"/>
    <use xlink:href="#DejaVuSans-20" transform="translate(3797.333984 0)"/>
    <use xlink:href="#DejaVuSans-73" transform="translate(3829.121094 0)"/>
    <use xlink:href="#DejaVuSans-74" transform="translate(3881.220703 0)"/>
    <use xlink:href="#DejaVuSans-6f" transform="translate(3920.429688 0)"/>
    <use xlink:href="#DejaVuSans-63" transform="translate(3981.611328 0)"/>
    <use xlink:href="#DejaVuSans-68" transform="translate(4036.591797 0)"/>
    <use xlink:href="#DejaVuSans-61" transform="translate(4099.970703 0)"/>
    <use xlink:href="#DejaVuSans-73" transform="translate(4161.25 0)"/>
    <use xlink:href="#DejaVuSans-74" transform="translate(4213.349609 0)"/>
    <use xlink:href="#DejaVuSans-69" transform="translate(4252.558594 0)"/>
    <use xlink:href="#DejaVuSans-63" transform="translate(4280.341797 0)"/>
    <use xlink:href="#DejaVuSans-20" transform="translate(4335.322266 0)"/>
    <use xlink:href="#DejaVuSans-73" transform="translate(4367.109375 0)"/>
    <use xlink:href="#DejaVuSans-61" transform="translate(4419.208984 0)"/>
    <use xlink:href="#DejaVuSans-6d" transform="translate(4480.488281 0)"/>
    <use xlink:href="#DejaVuSans-70" transform="translate(4577.900391 0)"/>
    <use xlink:href="#DejaVuSans-6c" transform="translate(4641.376953 0)"/>
    <use xlink:href="#DejaVuSans-65" transform="translate(4669.160156 0)"/>
    <use xlink:href="#DejaVuSans-2e" transform="translate(4730.683594 0)"/>
   </g>
  </g>
 </g>
 <defs>
  <clipPath id="p57b936a971">
   <rect x="40.603125" y="22.318125" width="520.585" height="330.296"/>
  </clipPath>
 </defs>
 <defs>
  <pattern id="h98dd609c5a" patternUnits="userSpaceOnUse" x="0" y="0" width="72" height="72">
   <rect x="0" y="0" width="73" height="73" fill="#d62728"/>
   <path d="M -36 36 
L 36 -36 
M -30 42 
L 42 -30 
M -24 48 
L 48 -24 
M -18 54 
L 54 -18 
M -12 60 
L 60 -12 
M -6 66 
L 66 -6 
M 0 72 
L 72 0 
M 6 78 
L 78 6 
M 12 84 
L 84 12 
M 18 90 
L 90 18 
M 24 96 
L 96 24 
M 30 102 
L 102 30 
M 36 108 
L 108 36 
" style="fill: #000000; stroke: #000000; stroke-width: 1.0; stroke-linecap: butt; stroke-linejoin: miter"/>
  </pattern>
 </defs>
</svg>
